<svg version="1.1" id="Layer_1" xmlns="http://www.w3.org/2000/svg" xmlns:xlink="http://www.w3.org/1999/xlink" x="0px" y="0px"
	 width="100%" viewBox="0 0 560 432" enable-background="new 0 0 560 432" xml:space="preserve">
<path fill="#000000" opacity="1.000000" stroke="none" 
	d="
M92.732170,175.000000 
	C92.713676,155.342087 92.698433,136.184174 92.678398,117.026268 
	C92.669060,108.088966 92.927162,107.661499 101.197998,104.840775 
	C145.161606,89.847191 189.131805,74.872932 233.099442,59.891178 
	C242.711502,56.615913 252.341125,53.390862 261.926300,50.038704 
	C267.007202,48.261803 271.979797,48.231297 277.082092,49.967022 
	C331.300140,68.411255 385.534454,86.807602 439.756104,105.241211 
	C447.015198,107.709061 447.351990,108.269043 447.359222,116.010307 
	C447.393982,153.326065 447.422852,190.641830 447.459137,227.957596 
	C447.467651,236.734802 446.949951,237.558258 438.479340,240.452927 
	C391.222656,256.602020 343.955688,272.720886 296.690887,288.846222 
	C290.076050,291.103027 283.428284,293.266388 276.843872,295.608276 
	C272.252838,297.241211 267.863159,297.148346 263.210449,295.559509 
	C208.864075,277.000946 154.496841,258.503021 100.086235,240.133865 
	C94.642311,238.295990 92.513283,235.205780 92.596024,229.472992 
	C92.855644,211.485092 92.717522,193.491425 92.732170,175.000000 
M269.582977,54.351299 
	C256.456268,56.948872 244.164902,62.209400 231.558731,66.431465 
	C190.032883,80.339340 148.604919,94.539207 107.108238,108.534714 
	C99.221962,111.194496 97.897568,112.677780 97.920235,121.032913 
	C97.982162,143.860641 98.045502,166.688431 98.172203,189.515854 
	C98.181412,191.175003 97.387077,193.235947 100.156021,194.673355 
	C103.151314,190.788010 103.132751,185.503326 103.599358,181.529449 
	C104.252159,175.969910 102.629410,170.548172 109.843590,168.760056 
	C109.584656,166.967499 108.271370,166.819839 107.316566,166.231964 
	C106.284576,165.596542 104.615364,165.447266 104.996254,163.637177 
	C106.183784,161.999680 108.805702,163.478653 109.708359,161.262115 
	C108.900368,159.572266 106.234123,161.057419 105.735725,159.091309 
	C105.572258,157.296753 107.709984,157.306564 107.938553,155.918488 
	C107.864334,154.625443 105.445335,154.458176 106.523193,152.410568 
	C107.417984,151.895905 108.536201,151.252731 109.572624,150.656601 
	C109.574120,148.988113 107.130127,149.042984 107.614052,147.387711 
	C108.179695,145.715225 110.529617,146.325958 110.956253,144.603470 
	C108.378281,140.462097 108.403320,136.183640 112.752319,133.813522 
	C110.328712,129.475510 112.206596,121.881462 117.115028,116.668579 
	C116.603127,121.227272 117.812744,124.502853 119.731255,127.422050 
	C121.567657,130.216354 118.420624,134.211365 122.096848,136.437881 
	C120.310219,139.269485 125.756248,143.429840 119.945297,145.312607 
	C121.553818,146.524948 122.723114,147.406235 123.635902,148.094193 
	C124.152313,150.053543 121.501968,150.013962 122.020180,151.652039 
	C122.767853,153.032822 124.910789,152.780136 125.330460,154.760239 
	C120.517883,159.696793 131.409088,161.345001 127.386810,166.116623 
	C132.680740,167.911484 132.281464,161.838516 132.272461,161.573334 
	C132.059479,155.303116 134.742676,149.472183 134.853790,143.266296 
	C134.895844,140.917953 135.684845,138.149994 138.859695,135.742142 
	C137.680450,141.248337 141.261673,144.704559 141.463913,149.419250 
	C141.599243,152.573868 142.286118,156.310059 143.082794,159.727112 
	C144.406036,165.402649 146.773010,170.815491 147.109955,176.824615 
	C147.322327,180.611938 147.474380,184.287445 147.337601,188.080658 
	C147.267105,190.035126 147.187469,193.612961 150.317123,194.754974 
	C156.464859,196.998260 165.325134,194.403610 169.065536,188.981110 
	C172.245117,184.371643 176.563095,182.668884 181.888290,182.668274 
	C193.219208,182.666992 204.550278,182.654831 215.880920,182.588074 
	C218.334091,182.573608 220.895721,182.857849 223.395645,180.995636 
	C222.292343,176.770737 221.304459,172.420364 220.008163,168.163925 
	C218.288971,162.518890 219.521729,157.838623 223.488831,153.463562 
	C228.131516,148.343430 228.280365,145.224091 224.989853,138.617371 
	C224.298553,140.267899 223.821716,141.875000 223.002609,143.282959 
	C218.946304,150.255035 215.762573,157.889008 207.769455,161.713806 
	C200.727722,165.083344 193.559723,168.165268 186.096115,170.338364 
	C181.027084,171.814255 174.839508,168.899612 172.444794,164.907822 
	C172.812378,163.790909 173.885330,163.572327 174.770294,163.224442 
	C181.950150,160.402054 187.532669,155.729111 191.664963,149.197617 
	C197.412262,140.113419 201.552155,130.081863 208.534637,121.702110 
	C213.259720,116.031494 216.199158,116.045509 219.647034,122.766991 
	C220.696121,124.812164 221.440979,127.043739 224.018356,127.628067 
	C228.976120,120.518875 227.283676,115.476707 218.655731,111.720070 
	C220.486862,107.486046 224.936707,106.556839 228.112610,104.126869 
	C229.817154,102.822678 233.022949,102.054321 232.998383,100.198128 
	C232.937698,95.609802 236.187271,95.031456 239.054749,94.349831 
	C244.646317,93.020653 249.444931,88.969574 255.397202,89.243614 
	C261.708038,89.534164 268.035919,90.093384 274.280823,91.035660 
	C285.282990,92.695755 296.340851,95.180305 306.115387,100.237335 
	C317.755096,106.259346 329.542694,110.321327 342.596771,110.592567 
	C344.747986,110.637260 346.276031,111.527275 346.951569,113.304665 
	C348.548889,117.507278 351.912720,120.338104 354.585571,123.693832 
	C357.025757,126.757431 359.078674,130.141632 359.575348,133.910645 
	C360.432617,140.415314 363.287323,145.836960 366.972778,151.038788 
	C369.759033,154.971436 368.731079,158.160583 363.822815,158.438202 
	C357.691284,158.785034 351.046478,159.507584 346.023468,154.282349 
	C344.265839,152.453979 342.082031,151.222244 339.828552,150.125885 
	C337.689178,149.085037 336.642120,148.047470 337.384583,145.131775 
	C338.131897,142.196915 335.310669,138.669479 338.541809,135.830536 
	C338.631744,135.751511 338.062500,134.652771 337.603333,134.260498 
	C333.567535,130.812836 329.515045,132.778519 325.417267,134.224655 
	C321.276947,135.685822 325.048431,138.468002 324.080719,141.206665 
	C316.101654,140.320755 310.092773,145.845688 303.052490,148.634628 
	C296.980286,151.040070 293.719330,156.171417 293.118134,162.514343 
	C292.788055,165.996521 292.041351,168.855927 289.752625,171.580902 
	C286.761902,175.141663 288.121399,178.509781 292.604889,179.856628 
	C302.807770,182.921631 313.300598,182.506134 323.754486,182.491318 
	C324.941864,182.489624 326.383148,182.527283 327.422058,181.086288 
	C319.578003,176.130508 312.990479,170.033890 307.647034,162.448792 
	C304.442291,157.899643 304.263824,155.545288 309.088165,152.456985 
	C314.344696,149.092026 320.147064,147.072784 326.376495,146.364243 
	C328.036865,146.175369 329.709503,145.912415 331.141571,147.610092 
	C330.588013,149.536255 329.204681,151.718307 329.559906,153.566147 
	C331.154541,161.860809 332.397217,170.367264 338.064331,177.232162 
	C339.040222,178.414307 340.050018,179.575363 341.700195,179.611511 
	C348.352142,179.757309 354.317566,183.572968 361.239349,182.870850 
	C364.707184,182.519073 368.063263,184.419678 370.019806,187.728973 
	C373.482452,193.585556 378.645203,195.504776 385.248535,195.059433 
	C391.536926,194.635345 394.447845,192.011826 393.763367,185.758301 
	C393.291412,181.446533 393.275085,177.730515 397.200867,176.325546 
	C395.599030,169.623611 396.168091,164.233414 398.184814,157.795013 
	C400.212738,151.320877 399.074646,143.745956 402.762329,137.288605 
	C403.628815,142.894272 406.562592,147.763336 406.576080,153.536575 
	C406.587494,158.430405 408.072571,163.345047 409.137207,168.199677 
	C409.537598,170.025406 410.926758,171.975937 412.964600,171.267517 
	C414.985809,170.564926 417.424133,170.184372 418.935547,168.405518 
	C417.985809,165.706512 414.421021,166.576111 413.702606,164.032639 
	C414.392029,162.062836 416.894653,162.998596 417.757355,161.192490 
	C417.295471,159.692734 414.596741,160.868942 414.554047,158.428757 
	C417.221161,157.078033 417.005157,155.087097 414.715759,153.120239 
	C415.908447,152.095413 417.548981,150.734253 417.522736,150.701340 
	C414.748840,147.220459 420.433807,144.603882 418.351562,140.716187 
	C417.333221,138.814880 418.063354,134.711746 422.237366,134.076340 
	C419.262360,130.672440 421.168793,121.257713 426.125122,117.104973 
	C425.010254,123.262787 427.980591,127.500679 430.296234,131.823364 
	C429.370514,132.706924 428.691711,133.354797 427.874969,134.134354 
	C429.184174,134.967834 430.274323,135.661865 431.849915,136.664932 
	C427.188385,138.835190 435.595917,143.679840 428.993591,145.233841 
	C431.134430,146.890701 431.306122,147.397720 431.775238,151.178787 
	C431.845001,151.741135 432.555267,152.196320 432.753235,152.774963 
	C433.981506,156.364853 433.767059,160.427917 436.736664,163.479477 
	C437.472656,164.235809 435.274963,164.839920 435.002228,165.912857 
	C438.337097,167.756134 438.337097,167.756134 435.840302,171.186752 
	C436.879517,172.386551 439.220123,172.205261 439.311523,174.376968 
	C439.429474,177.178436 435.743408,176.257736 435.057495,178.151733 
	C436.164825,180.082840 438.748718,179.633942 439.310455,181.506409 
	C439.161346,183.603012 436.681641,183.080200 436.135193,185.090561 
	C441.441071,185.761185 435.991669,192.751495 441.443909,194.294968 
	C441.692444,193.029831 441.981049,192.246384 441.980652,191.463089 
	C441.969360,167.639694 441.972412,143.818207 442.549500,119.997543 
	C442.706604,113.512794 440.684174,111.427460 434.260834,109.240974 
	C389.799622,94.106575 345.371399,78.874481 300.867584,63.866501 
	C290.796112,60.470100 281.010498,56.085598 269.582977,54.351299 
M220.867432,234.597290 
	C228.329712,233.254272 235.491547,235.949799 242.777008,236.641953 
	C245.984833,236.946701 248.822906,237.667755 251.692108,236.092209 
	C256.653107,233.368011 261.534271,230.498642 266.457733,227.705688 
	C271.005951,225.125610 275.524536,225.076248 280.285339,227.392746 
	C285.569855,229.964081 290.390076,233.257980 295.008484,236.773071 
	C298.419037,239.368866 301.304901,239.462433 305.033905,237.626022 
	C309.328278,235.511185 314.019165,232.413437 318.636780,233.510925 
	C323.230743,234.602798 326.939484,233.921677 330.471191,231.792343 
	C339.684998,226.237198 348.340118,227.074646 357.121002,232.809036 
	C360.418793,234.962662 364.144623,237.366898 368.208923,236.840469 
	C372.820435,236.243195 376.709045,237.486526 380.689209,239.301254 
	C383.108521,240.404358 385.571716,241.530655 388.133514,242.179169 
	C395.554779,244.057800 399.284241,242.969482 399.183380,234.894058 
	C399.126068,230.303848 399.893951,225.334473 401.908722,220.969803 
	C402.388062,220.975494 402.867401,220.981186 403.346741,220.986877 
	C404.957886,228.512314 406.569031,236.037750 408.363220,244.418243 
	C411.965759,234.582016 411.162537,224.675278 414.491791,215.745117 
	C415.015808,215.683929 415.539825,215.622726 416.063843,215.561523 
	C417.892761,223.561172 419.721680,231.560837 421.677063,240.113586 
	C427.288452,238.098465 432.464325,236.355194 437.543518,234.365143 
	C439.946472,233.423676 441.741150,231.811035 441.729858,228.777267 
	C441.700684,220.949051 441.775665,213.119629 441.900452,205.292130 
	C441.947174,202.361343 440.725037,201.044174 437.756317,201.048996 
	C418.934235,201.079575 400.112000,201.022919 381.289978,201.065979 
	C377.632812,201.074341 373.923981,202.160934 372.185028,205.396973 
	C367.988617,213.206039 360.996857,213.964020 353.413757,213.943390 
	C335.765350,213.895370 318.116791,213.902756 300.468292,213.904846 
	C263.665161,213.909210 226.862015,213.931915 190.058884,213.920502 
	C187.398636,213.919678 184.739426,213.669022 182.078049,213.594330 
	C175.977966,213.423096 171.185516,210.963333 167.858093,205.741058 
	C165.959320,202.761002 163.329391,200.917480 159.623734,200.925385 
	C140.634384,200.965912 121.644859,201.035767 102.655739,200.979614 
	C99.107697,200.969116 98.005806,202.542145 98.118996,205.854675 
	C98.278191,210.513382 98.194427,215.182083 98.147888,219.845825 
	C98.010406,233.622910 96.575859,232.620987 110.697960,237.690781 
	C114.446877,239.036636 116.411697,238.359818 118.174232,234.876770 
	C119.032669,233.180344 118.727791,231.702240 118.767334,230.106735 
	C118.897499,224.854721 119.958748,219.769913 120.837074,214.609970 
	C123.278526,215.098343 123.891220,216.618378 123.990128,218.053497 
	C124.437386,224.543152 127.204597,230.551392 127.781265,236.981766 
	C127.923004,238.562332 127.722649,240.263672 129.687943,240.286880 
	C131.876755,240.312775 131.849365,238.517731 132.080948,236.718796 
	C132.697739,231.927612 133.685883,227.184250 134.530563,222.398148 
	C137.158401,222.891907 137.100983,224.540176 137.372849,225.953079 
	C137.874542,228.560150 138.151611,231.228439 138.873291,233.771606 
	C140.601410,239.861572 142.620819,241.054520 148.745224,239.089127 
	C152.846954,237.772858 156.713760,235.736298 160.718369,234.102112 
	C164.406723,232.596970 168.313126,229.851761 172.068176,230.911743 
	C178.512451,232.730896 183.503250,230.060516 188.637955,227.458908 
	C195.005188,224.232819 201.007996,224.431213 207.173431,227.962738 
	C211.352768,230.356628 215.775314,232.325912 220.867432,234.597290 
M238.058228,160.709091 
	C239.230072,162.952911 240.954239,161.619476 242.381210,161.243881 
	C245.133102,160.519531 247.611526,159.138687 250.013016,157.605026 
	C253.806137,155.182632 257.937408,154.988190 263.332794,155.392517 
	C260.536743,160.195480 260.905151,165.186386 257.284058,168.678940 
	C255.891098,170.022430 253.881409,171.390945 254.922745,173.683243 
	C255.880676,175.791946 257.970795,176.584702 260.269287,176.796417 
	C263.435425,177.088074 266.309845,177.601944 268.532990,180.553467 
	C270.497711,183.161926 273.823456,182.391327 276.384338,181.361084 
	C278.785706,180.395004 277.738922,177.910172 277.411713,176.029648 
	C276.691040,171.887802 275.082184,168.019531 275.484283,163.534195 
	C275.817047,159.822113 277.064423,156.438934 277.656677,152.862427 
	C278.406555,148.334457 277.071503,146.848297 272.603149,147.817581 
	C264.313141,149.615860 256.043365,151.518112 247.805252,153.540253 
	C243.847595,154.511673 240.319031,156.346817 238.058228,160.709091 
M236.777985,176.301193 
	C238.174835,172.937164 236.091797,171.066391 233.699051,169.300308 
	C233.601913,172.012772 231.756332,175.282074 236.777985,176.301193 
z"/>
<path fill="#000000" opacity="1.000000" stroke="none" 
	d="
M124.106758,253.797958 
	C156.041367,264.479645 187.598450,275.040466 219.136383,285.658203 
	C234.903748,290.966522 250.656326,296.320801 266.366211,301.795990 
	C269.279968,302.811493 271.843903,302.436920 274.604553,301.491272 
	C303.584229,291.564178 332.557281,281.616760 361.579803,271.816040 
	C390.123749,262.176941 418.710419,252.663635 447.314575,243.204697 
	C450.536102,242.139374 451.813232,240.286865 451.918091,237.022049 
	C452.137177,230.199814 452.528076,223.381973 452.941132,216.567932 
	C453.045898,214.839645 452.438538,212.875076 454.333618,211.236679 
	C456.821106,213.748032 456.655945,217.049820 456.852173,219.979752 
	C457.230133,225.622696 457.316681,231.313446 457.054779,236.962616 
	C456.814697,242.141266 454.495178,245.773239 449.017059,247.626434 
	C406.749054,261.925049 364.567017,276.477539 322.334473,290.881439 
	C306.892975,296.147949 291.375946,301.192841 275.918152,306.412231 
	C272.138214,307.688538 268.467133,307.815521 264.676819,306.529572 
	C224.299789,292.830414 183.905182,279.182983 143.534012,265.466553 
	C127.615273,260.058075 111.744751,254.507660 95.847847,249.034729 
	C93.646355,248.276794 91.443031,247.567719 90.743729,243.617325 
	C102.719528,245.325455 112.791512,251.062805 124.106758,253.797958 
z"/>
<path fill="#000000" opacity="1.000000" stroke="none" 
	d="
M400.086975,80.926826 
	C414.013763,85.041626 427.110382,90.331215 440.378113,95.136101 
	C442.146637,95.776566 443.590149,96.669334 444.701813,100.253242 
	C390.962097,83.551674 339.045349,65.315880 285.889160,46.694405 
	C291.407074,43.778652 295.550781,45.407211 299.099823,46.826004 
	C314.413513,52.947941 330.437500,56.859856 345.933533,62.402946 
	C363.771973,68.783958 381.784515,74.678185 400.086975,80.926826 
z"/>
<path fill="#000000" opacity="1.000000" stroke="none" 
	d="
M238.571350,47.525421 
	C242.109177,46.217045 245.238968,44.759510 249.078781,45.623035 
	C244.877258,51.617622 238.208511,51.350811 232.618134,53.355221 
	C220.280701,57.778767 207.930450,62.170647 195.529755,66.412704 
	C178.054749,72.390594 160.536804,78.243561 143.015778,84.085617 
	C140.869095,84.801384 138.594360,85.519020 134.832779,83.476860 
	C169.557343,69.919212 204.148895,59.541447 238.571350,47.525421 
z"/>
<path fill="#000000" opacity="1.000000" stroke="none" 
	d="
M455.217010,274.748444 
	C450.150818,276.208588 446.941864,272.060150 442.312714,271.511688 
	C442.556305,273.652069 444.123016,274.941895 445.070862,276.532196 
	C446.060120,278.192078 447.795807,279.984467 445.298370,281.652649 
	C443.176514,283.069977 441.930145,281.325470 440.857391,279.835144 
	C438.336212,276.332672 435.863129,272.794586 433.429108,269.230927 
	C432.508606,267.883240 431.315430,266.442352 432.973633,264.817627 
	C434.458069,263.363190 436.049072,262.333313 438.302734,263.309601 
	C441.012970,264.483704 443.787628,265.509033 447.093903,266.820740 
	C447.012573,263.882050 445.028076,262.606659 444.115234,260.835571 
	C443.302460,259.258698 442.612427,257.787262 444.539459,256.516846 
	C446.166290,255.444351 447.372345,256.116272 448.343872,257.486816 
	C451.222839,261.548340 454.098206,265.612885 456.923218,269.711884 
	C458.369141,271.809906 457.800964,273.445190 455.217010,274.748444 
z"/>
<path fill="#000000" opacity="1.000000" stroke="none" 
	d="
M230.722275,323.149841 
	C228.149765,322.615112 229.496597,324.667480 229.040436,325.554382 
	C228.529694,326.547424 228.478271,327.793976 228.311386,328.942505 
	C228.068909,330.611481 227.509064,331.880432 225.472672,331.508453 
	C223.675308,331.180145 222.970581,330.021942 223.175964,328.270996 
	C223.678848,323.983490 224.203857,319.698608 224.715103,315.412109 
	C224.946884,313.468811 224.687393,311.133575 227.485886,310.877960 
	C230.058624,310.643005 231.963730,311.725983 232.985245,314.239655 
	C233.952621,316.620087 234.772659,319.113770 236.774094,321.272522 
	C238.318802,319.001923 238.331787,316.826111 238.666702,314.755951 
	C238.918457,313.199890 239.650299,312.311554 241.316589,312.515259 
	C243.072052,312.729858 244.050797,313.653870 243.833084,315.519623 
	C243.255981,320.465485 242.705734,325.415253 242.044037,330.349976 
	C241.836990,331.893951 241.163712,333.244476 239.232986,333.263184 
	C237.298782,333.281921 235.536331,332.853546 234.574326,331.001190 
	C233.273727,328.496918 232.095337,325.929169 230.722275,323.149841 
z"/>
<path fill="#000000" opacity="1.000000" stroke="none" 
	d="
M255.409119,323.343079 
	C255.346344,327.782257 257.280304,329.813995 262.004791,329.638092 
	C260.540863,326.279022 260.408142,323.734741 265.023438,323.629883 
	C270.757874,323.499634 271.275818,323.997253 271.411469,329.474976 
	C271.521027,333.896698 270.548737,336.257050 265.474548,334.731964 
	C264.176910,334.341919 262.558716,335.143799 261.079407,335.209717 
	C256.104156,335.431458 251.624619,332.197571 250.156372,327.420166 
	C248.725296,322.763702 250.501953,317.877808 254.589767,315.227936 
	C258.321564,312.808899 264.077820,312.947083 267.206390,315.596741 
	C268.444031,316.644928 270.189575,317.776917 268.794037,319.657013 
	C267.745270,321.069946 266.149994,321.450439 264.369629,320.434204 
	C260.592377,318.278107 257.385651,318.460388 255.409119,323.343079 
z"/>
<path fill="#000000" opacity="1.000000" stroke="none" 
	d="
M415.490204,275.354248 
	C420.379303,272.193634 424.943787,272.209656 429.156006,275.677521 
	C432.645599,278.550507 434.011566,282.413666 432.664093,286.838623 
	C431.212738,291.604828 427.851807,294.360229 422.855988,294.702026 
	C418.064301,295.029816 414.550568,292.705078 412.263367,288.617310 
	C409.989777,284.553864 411.043213,280.204803 415.490204,275.354248 
M427.332458,285.789062 
	C428.169189,282.834778 427.206635,280.609009 424.571136,279.103394 
	C422.830261,278.108856 421.134552,278.171936 419.484009,279.395813 
	C417.570465,280.814728 416.799957,282.692535 417.160339,285.013763 
	C417.496704,287.180542 418.888977,288.661377 420.836914,289.314697 
	C423.649261,290.257935 425.541748,288.674805 427.332458,285.789062 
z"/>
<path fill="#000000" opacity="1.000000" stroke="none" 
	d="
M102.748444,262.476776 
	C104.479843,268.315643 103.416565,270.946411 98.350342,273.054840 
	C96.665253,273.756134 95.394783,274.316833 95.264809,276.348450 
	C95.174179,277.764984 95.544609,279.402924 93.811325,280.491150 
	C87.677757,279.626068 91.085846,273.694824 89.138046,270.733643 
	C86.337219,270.563721 85.247101,276.020050 82.347893,272.846100 
	C79.575035,269.810486 83.767761,268.075836 84.669037,265.698181 
	C84.956039,264.941071 85.537376,264.291809 86.004883,263.607422 
	C93.002602,253.363876 93.477013,253.323166 102.748444,262.476776 
M97.951469,266.877869 
	C98.601860,265.893005 98.334381,264.993683 97.597450,264.230072 
	C96.689445,263.289154 95.709679,262.282440 94.243568,262.635315 
	C93.185585,262.889984 92.642395,263.865234 92.659798,264.860321 
	C92.686325,266.377075 93.870804,267.158539 95.146149,267.527924 
	C95.850891,267.731964 96.705475,267.418610 97.951469,266.877869 
z"/>
<path fill="#000000" opacity="1.000000" stroke="none" 
	d="
M286.743225,317.223083 
	C288.010345,313.133484 293.136017,311.386932 298.836182,312.886444 
	C302.744446,313.914551 305.333405,316.928223 303.973480,320.634918 
	C302.411163,324.893280 301.728546,328.560699 304.870117,332.120575 
	C298.828644,335.752838 297.729309,329.042725 294.286682,327.906708 
	C292.259521,329.730682 294.776459,334.477081 290.576416,334.011322 
	C286.542419,333.563965 288.081635,329.619843 287.679810,327.087341 
	C287.186951,323.980804 287.041626,320.819122 286.743225,317.223083 
M298.422455,319.136841 
	C297.891235,317.927155 296.872406,317.495392 295.652832,317.520721 
	C294.152802,317.551819 292.459625,317.593781 292.512604,319.685150 
	C292.572815,322.061615 294.393799,321.988068 296.081146,321.815399 
	C297.302063,321.690399 298.253448,321.124359 298.422455,319.136841 
z"/>
<path fill="#000000" opacity="1.000000" stroke="none" 
	d="
M386.750549,295.223206 
	C388.845367,288.283600 393.310699,285.035797 399.197479,285.783875 
	C404.317200,286.434448 408.002869,290.321014 408.359375,295.445190 
	C408.792114,301.665314 404.675659,306.702026 398.700256,307.263702 
	C392.007660,307.892731 387.295471,303.321289 386.750549,295.223206 
M395.379089,291.699554 
	C392.475891,293.554901 391.193176,296.033417 393.079834,299.217163 
	C394.494995,301.605225 396.831360,302.481537 399.503784,301.467285 
	C402.189819,300.447845 403.306152,298.238922 402.741730,295.507141 
	C402.005859,291.945404 399.563660,290.722443 395.379089,291.699554 
z"/>
<path fill="#000000" opacity="1.000000" stroke="none" 
	d="
M462.895691,260.855042 
	C464.485626,258.133179 468.961975,259.954041 469.514435,256.094238 
	C467.253937,254.946503 465.806946,256.486389 464.254028,257.183838 
	C460.825562,258.723663 457.645813,258.789398 455.400665,255.426224 
	C452.988861,251.813431 454.676605,248.739227 457.423157,246.147858 
	C458.366699,245.257629 459.577637,244.471634 460.806061,244.102097 
	C462.972046,243.450516 465.902069,242.323074 466.958191,245.068436 
	C467.897125,247.509308 465.490692,248.719910 463.209778,249.304825 
	C461.860046,249.650955 460.885101,250.438507 460.787201,252.268356 
	C463.305084,252.708374 464.915039,250.870178 466.883026,250.288910 
	C469.639008,249.474854 472.163849,249.347366 474.197144,251.720291 
	C476.357544,254.241592 475.958923,256.893860 474.461151,259.594635 
	C472.694000,262.781097 469.803162,264.425232 466.409973,264.869080 
	C464.096283,265.171722 461.357788,264.958954 462.895691,260.855042 
z"/>
<path fill="#000000" opacity="1.000000" stroke="none" 
	d="
M331.286377,321.780396 
	C332.422791,323.819061 333.690674,325.406555 333.870819,327.442017 
	C332.101837,329.335907 330.556335,329.189056 328.577637,327.753143 
	C325.046204,325.190521 321.749237,325.514099 319.389771,329.505890 
	C318.416901,331.151794 317.052094,332.097961 315.314362,331.526428 
	C313.303589,330.865112 314.190979,329.087158 314.449463,327.675598 
	C315.287537,323.098419 316.103088,318.516418 317.016357,313.954071 
	C317.409515,311.989868 317.879150,310.095703 320.458313,309.664429 
	C323.069031,309.227905 324.518219,310.447571 325.708832,312.476746 
	C327.476532,315.489502 329.302032,318.468353 331.286377,321.780396 
z"/>
<path fill="#000000" opacity="1.000000" stroke="none" 
	d="
M120.463303,294.178162 
	C117.887924,297.286682 116.492493,295.481201 115.888176,293.213074 
	C114.580780,288.306061 111.917717,286.292419 106.893372,288.019379 
	C105.504524,288.496735 104.196686,288.097748 103.366684,286.893829 
	C102.330833,285.391296 103.484825,284.400513 104.506973,283.570465 
	C108.363823,280.438507 112.269791,277.367065 116.152092,274.266357 
	C117.674057,273.050781 119.203827,272.397675 121.138817,273.523193 
	C123.000389,274.605988 123.551430,276.199249 123.239586,278.144653 
	C122.402107,283.369232 121.487335,288.581390 120.463303,294.178162 
z"/>
<path fill="#000000" opacity="1.000000" stroke="none" 
	d="
M354.217957,304.561859 
	C356.926788,308.890289 354.264374,309.472565 351.247040,308.924713 
	C348.409271,308.409454 346.286865,308.979004 344.712036,311.257904 
	C343.213745,313.426086 343.363983,315.687286 345.102325,317.685822 
	C346.820374,319.661041 348.966980,320.246582 351.372589,319.016235 
	C352.245636,318.569733 352.966492,317.831207 353.774109,317.250000 
	C355.361938,316.107391 357.030640,316.178864 358.226196,317.627472 
	C359.495972,319.165985 358.153198,320.409729 357.160767,321.502197 
	C353.812592,325.187805 347.812134,326.006500 343.438019,323.422058 
	C339.131866,320.877777 337.130188,315.657806 338.657074,310.954407 
	C340.311676,305.857605 344.836761,302.752289 350.097168,303.264282 
	C351.387421,303.389832 352.631927,303.985321 354.217957,304.561859 
z"/>
<path fill="#000000" opacity="1.000000" stroke="none" 
	d="
M165.780457,294.947449 
	C167.668243,295.874023 170.121796,296.177917 169.069901,298.753723 
	C168.047958,301.256134 166.040283,299.811646 164.343460,299.449615 
	C162.557999,299.068634 160.756378,297.420197 158.864548,299.235504 
	C159.022141,301.875885 161.281570,301.833008 162.751663,302.643066 
	C164.053146,303.360168 165.007080,304.180176 164.371994,305.767181 
	C163.739319,307.348175 162.418961,307.349335 161.024490,306.951752 
	C160.705536,306.860870 160.408295,306.676636 160.085999,306.617523 
	C158.611572,306.346985 156.694016,304.508484 155.812012,306.892365 
	C154.963562,309.185547 157.493057,309.239319 158.845444,309.951874 
	C159.432404,310.261169 160.073257,310.466461 160.671234,310.756836 
	C162.149780,311.474823 164.116974,312.038086 163.082718,314.281158 
	C162.242645,316.103149 160.551346,315.404999 159.124908,315.026459 
	C148.745621,312.271912 148.233261,311.273224 151.999496,301.265045 
	C152.116653,300.953735 152.245117,300.646454 152.375519,300.340393 
	C156.516098,290.621613 153.894943,290.045898 165.780457,294.947449 
z"/>
<path fill="#000000" opacity="1.000000" stroke="none" 
	d="
M452.052307,176.116669 
	C452.534149,163.440247 453.014252,151.240433 453.548737,137.658432 
	C457.867828,147.121719 457.956146,183.641235 453.933899,199.328903 
	C452.830048,191.798447 451.955292,184.244843 452.052307,176.116669 
z"/>
<path fill="#000000" opacity="1.000000" stroke="none" 
	d="
M378.573364,316.018982 
	C373.389374,318.126770 368.947327,317.410919 365.506012,313.539917 
	C362.401611,310.047882 361.643738,305.770508 363.866425,301.499390 
	C366.061890,297.280518 369.809753,295.400635 374.566833,295.715668 
	C376.529999,295.845703 379.191772,295.836273 379.290741,298.278870 
	C379.407440,301.157532 376.836060,301.237396 374.541687,301.104797 
	C371.523682,300.930359 369.353760,302.252838 368.513275,305.196259 
	C367.850891,307.516083 368.750122,309.481873 370.715302,310.818970 
	C373.104706,312.444824 375.500793,312.118713 377.520233,310.186890 
	C379.219696,308.561127 381.229523,306.987946 383.009766,309.116425 
	C384.815491,311.275391 382.391998,312.949432 380.980011,314.457306 
	C380.429810,315.044922 379.621643,315.390991 378.573364,316.018982 
z"/>
<path fill="#000000" opacity="1.000000" stroke="none" 
	d="
M144.622162,287.280212 
	C146.630157,286.658783 147.846786,287.358643 149.307205,289.229919 
	C145.030502,294.252289 140.324173,299.079865 134.750153,302.783020 
	C132.097458,304.545349 128.880112,302.596619 129.181290,299.467499 
	C129.780197,293.244904 129.118896,286.841827 131.075775,280.564270 
	C135.550888,280.084778 135.520325,282.752289 135.420578,285.794220 
	C135.335403,288.391449 134.651657,291.047699 135.766785,294.066986 
	C139.505127,292.857635 141.357956,289.404205 144.622162,287.280212 
z"/>
<path fill="#000000" opacity="1.000000" stroke="none" 
	d="
M76.605881,241.528442 
	C79.294044,243.487778 81.752960,245.213013 84.018700,247.162750 
	C85.646309,248.563339 88.672607,249.772614 86.694649,252.626434 
	C84.722229,255.472229 83.013763,252.016220 80.734512,251.776810 
	C77.786461,254.090912 75.635635,257.453613 73.057579,260.422363 
	C71.763351,261.912689 70.400818,263.852478 68.159355,261.818054 
	C66.269562,260.102844 67.510422,258.486816 68.691025,257.032288 
	C70.053436,255.353714 71.533089,253.770706 72.910110,252.103500 
	C74.693535,249.944244 76.884720,248.076736 74.103378,244.836487 
	C72.727127,243.233154 73.598961,241.318176 76.605881,241.528442 
z"/>
<path fill="#000000" opacity="1.000000" stroke="none" 
	d="
M183.863098,320.103210 
	C179.271317,324.443359 175.506195,320.102600 171.687958,318.927063 
	C168.209473,317.856110 170.685745,314.653595 171.215714,312.493439 
	C172.122375,308.798004 173.386871,305.189362 174.531891,301.553955 
	C175.008392,300.041107 175.720230,298.689209 177.678238,299.219757 
	C179.710480,299.770416 180.146545,301.174927 179.566986,303.079773 
	C178.794998,305.616974 178.263123,308.244537 177.289062,310.698730 
	C175.900131,314.198242 176.475174,316.414734 180.464096,317.269989 
	C181.861725,317.569672 183.464798,317.912720 183.863098,320.103210 
z"/>
<path fill="#000000" opacity="1.000000" stroke="none" 
	d="
M202.017471,327.572388 
	C187.629150,324.162292 189.874298,326.106659 192.677200,313.420898 
	C193.141846,311.317963 193.613632,309.213287 194.190201,307.139465 
	C194.634125,305.542664 195.575684,304.498322 197.463562,304.948517 
	C199.434128,305.418488 199.568253,306.893280 199.246765,308.447876 
	C198.743759,310.880310 198.238464,313.330414 197.465439,315.684814 
	C196.141342,319.717590 196.584686,322.500854 201.589691,322.896149 
	C202.883377,322.998352 204.354080,323.405151 204.599014,325.022491 
	C204.836288,326.589264 204.049881,327.545288 202.017471,327.572388 
z"/>
<path fill="#000000" opacity="1.000000" stroke="none" 
	d="
M215.932938,328.693176 
	C212.381683,330.941193 210.985535,329.672150 211.478821,326.137573 
	C212.121704,321.530945 213.014359,316.958893 213.817673,312.375122 
	C214.124557,310.624115 214.686417,309.017822 216.949326,309.381470 
	C219.135147,309.732727 219.471130,311.419769 219.145706,313.173615 
	C218.205536,318.240906 217.131073,323.283295 215.932938,328.693176 
z"/>
<path fill="#000000" opacity="1.000000" stroke="none" 
	d="
M85.018372,150.506104 
	C84.977463,150.987457 85.008133,151.201874 84.915291,151.303894 
	C84.737007,151.499771 84.488663,151.631866 84.269386,151.790436 
	C83.109573,150.045151 82.966171,148.005234 83.182076,146.092789 
	C83.848213,140.192322 84.072746,134.272751 85.034164,128.331375 
	C85.034164,135.617065 85.034164,142.902740 85.018372,150.506104 
z"/>
<path fill="#000000" opacity="1.000000" stroke="none" 
	d="
M85.020325,110.457474 
	C82.538475,108.674759 82.440536,103.924644 84.700012,102.823837 
	C85.205635,102.577499 86.017441,102.564507 86.524376,102.798767 
	C87.558327,103.276558 87.777306,104.329216 87.406357,105.305519 
	C86.770409,106.979263 85.964386,108.588394 85.020325,110.457474 
z"/>
<path fill="#000000" opacity="1.000000" stroke="none" 
	d="
M82.965240,233.106445 
	C83.049156,231.283340 82.799767,229.771118 84.141449,228.183960 
	C86.648590,231.526123 86.397438,234.692154 85.301620,238.264816 
	C82.378868,237.206680 83.263657,235.114777 82.965240,233.106445 
z"/>
<path fill="#000000" opacity="1.000000" stroke="none" 
	d="
M89.244492,101.114746 
	C88.851601,97.636421 91.485008,98.218819 93.561127,97.961807 
	C92.944099,99.923599 92.530342,102.084488 89.244492,101.114746 
z"/>
</svg>